<svg width="16" height="16" viewBox="0 0 16 16" fill="none" xmlns="http://www.w3.org/2000/svg">
<path fill-rule="evenodd" clip-rule="evenodd" d="M0.916504 8.00008C0.916504 6.52824 0.916504 5.79231 1.05649 5.18377C1.5286 3.13142 3.13118 1.52884 5.18353 1.05673C5.79207 0.916748 6.52799 0.916748 7.99984 0.916748C9.47168 0.916748 10.2076 0.916748 10.8161 1.05673C12.8685 1.52884 14.4711 3.13142 14.9432 5.18377C15.0832 5.79231 15.0832 6.52824 15.0832 8.00008C15.0832 9.47193 15.0832 10.2079 14.9432 10.8164C14.4711 12.8687 12.8685 14.4713 10.8161 14.9434C10.2076 15.0834 9.47168 15.0834 7.99984 15.0834C6.52799 15.0834 5.79207 15.0834 5.18353 14.9434C3.13118 14.4713 1.5286 12.8687 1.05649 10.8164C0.916504 10.2079 0.916504 9.47193 0.916504 8.00008ZM7.99984 4.25008C5.9289 4.25008 4.24984 5.92914 4.24984 8.00008C4.24984 10.071 5.9289 11.7501 7.99984 11.7501C10.0708 11.7501 11.7498 10.071 11.7498 8.00008C11.7498 5.92914 10.0708 4.25008 7.99984 4.25008ZM7.99984 10.3438C6.70796 10.3438 5.65609 9.29196 5.65609 8.00008C5.65609 6.70727 6.70796 5.65633 7.99984 5.65633C9.29171 5.65633 10.3436 6.70727 10.3436 8.00008C10.3436 9.29196 9.29171 10.3438 7.99984 10.3438ZM12.5308 3.96883C12.5308 4.2448 12.3071 4.46852 12.0311 4.46852C11.7551 4.46852 11.5314 4.2448 11.5314 3.96883C11.5314 3.69286 11.7551 3.46914 12.0311 3.46914C12.3071 3.46914 12.5308 3.69286 12.5308 3.96883Z" fill="#9D097C"/>
</svg>
