<svg width="10" height="17" viewBox="0 0 10 17" fill="none" xmlns="http://www.w3.org/2000/svg">
<path d="M8.85302 0.503294L6.85423 0.5C4.60866 0.5 3.15748 2.02942 3.15748 4.3966V6.1932H1.14779C0.974125 6.1932 0.833496 6.33782 0.833496 6.51621V9.11928C0.833496 9.29767 0.974285 9.44213 1.14779 9.44213H3.15748V16.0105C3.15748 16.1889 3.29811 16.3333 3.47177 16.3333H6.09384C6.26751 16.3333 6.40813 16.1887 6.40813 16.0105V9.44213H8.75793C8.93159 9.44213 9.07222 9.29767 9.07222 9.11928L9.07318 6.51621C9.07318 6.43056 9.03999 6.34853 8.98114 6.28791C8.92229 6.2273 8.84212 6.1932 8.75873 6.1932H6.40813V4.6702C6.40813 3.93819 6.57795 3.56658 7.50622 3.56658L8.8527 3.56609C9.0262 3.56609 9.16683 3.42147 9.16683 3.24324V0.826145C9.16683 0.648083 9.02636 0.503624 8.85302 0.503294Z" fill="#9D097C"/>
</svg>
