<svg width="105" height="64" viewBox="0 0 105 64" fill="none" xmlns="http://www.w3.org/2000/svg">
<g clip-path="url(#clip0_307_547)">
<path fill-rule="evenodd" clip-rule="evenodd" d="M40.465 50.645C46.999 41.4732 45.8486 34.4996 42.0024 25.8358C46.383 23.9246 44.5349 18.0935 44.3559 7.80549C44.3191 5.74157 44.1716 6.27861 43.1792 7.20527C42.4157 7.91869 41.7655 8.78744 41.4127 10.0221C41.1179 11.0567 41.8418 13.9736 42.2788 14.8897C39.5357 14.2526 35.808 12.8547 34.9761 18.1725C34.9761 18.8912 35.3184 19.9732 35.6027 20.4733C37.2217 23.3376 40.3571 21.9397 40.8178 21.8317C40.1833 20.863 38.7354 20.3707 39.7226 18.9122C40.7993 17.3195 44.7561 19.5809 41.131 22.4925C40.207 23.2349 39.612 23.6824 38.6327 24.3458C39.0224 26.186 40.3834 28.0288 40.8046 29.8294C40.0412 29.2266 39.6384 28.5026 38.9197 27.7366C37.6745 26.4045 29.2582 18.6779 19.0781 16.8483C10.3749 15.2898 3.60398 8.41361 3.24859 8.32411C3.23806 10.7961 4.75178 15.0687 5.91537 16.9641C6.5814 18.0488 7.25534 19.5414 7.91611 20.4339C9.86946 23.0611 14.0315 26.1333 17.1037 27.6655C19.3414 28.7817 22.8006 30.2164 25.4989 30.2138C24.5486 31.6406 23.8615 31.717 22.9269 33.4834C18.3252 42.155 28.8923 50.4844 36.0555 45.5168C38.0246 44.1505 38.996 41.4943 38.996 40.4307C38.996 38.4589 37.9062 37.2243 37.5455 35.6816L36.8953 36.5082C36.8505 36.5714 36.7952 36.6662 36.7531 36.732C36.5293 37.0821 36.3003 37.5191 36.0713 37.8693C33.5651 41.6812 29.8716 39.125 29.8716 37.1453C29.8716 33.0754 35.708 30.8509 39.3488 34.2363C39.949 34.7944 40.8862 36.4029 41.1784 37.1453C44.0242 44.3796 37.0295 47.9519 35.7106 49.9158C36.7873 52.0666 38.6169 54.4754 40.0122 56.5577L43.9637 62.4573C44.2796 62.8653 44.2427 62.8127 44.3427 62.9127C44.3427 60.2091 44.9166 57.6134 43.4424 55.4705C42.1498 53.5961 41.3179 51.8797 40.4676 50.6424" fill="#624A9D"/>
<path d="M49.4209 21.6107H54.1516V24.9883L58.4769 21.6107H63.7209L59.1403 25.1857L64.5844 31.2301H58.906L55.8075 27.7893L54.1516 29.0872V31.2353H49.4209V21.6134V21.6107ZM74.1537 26.2914L69.4704 21.6055H65.4189V31.2275H70.0391V27.118L74.1564 31.2222L78.2737 27.118V31.2275H82.8938V21.6055H78.8423L74.159 26.2914H74.1537ZM84.5865 21.6055H98.8918V23.6641H89.3304V25.3016H97.1886V27.3629H89.3304V31.2275H84.5892V21.6055H84.5865Z" fill="#533D8D"/>
<mask id="mask0_307_547" style="mask-type:luminance" maskUnits="userSpaceOnUse" x="49" y="36" width="56" height="22">
<path d="M101.746 54.965V57.924H98.9945V54.9282L95.9171 49.7657H98.8181L100.485 52.5852L102.161 49.7657H104.818L101.74 54.9624L101.746 54.965ZM93.0634 57.924L93.0397 54.2069L91.268 57.1896H90.057L88.2853 54.3332V57.9214H85.7791V49.7631H88.0405L90.6967 54.1095L93.2845 49.7631H95.5459L95.5696 57.9214H93.0634V57.924ZM82.3542 54.965V57.924H79.6031V54.9282L76.5257 49.7657H79.4268L81.0932 52.5852L82.7701 49.7657H85.4263L82.3489 54.9624L82.3542 54.965ZM76.1782 49.7684V57.9267H73.9168L70.8183 54.22V57.9267H68.1384V49.7684H70.3997L73.4983 53.475V49.7684H76.1782ZM63.5472 54.5228L62.7548 52.472L61.9624 54.5228H63.5472ZM64.3054 56.5051H61.2069L60.6593 57.9267H57.8635L61.4306 49.7684H64.1343L67.7014 57.9267H64.8582L64.3106 56.5051H64.3054ZM82.7411 39.5541C82.7411 39.2513 82.649 39.017 82.4621 38.8486C82.2752 38.6827 81.9961 38.5985 81.6223 38.5985H80.6193V40.5097H81.6223C81.9961 40.5097 82.2752 40.4254 82.4621 40.2596C82.649 40.0937 82.7411 39.8568 82.7411 39.5541ZM81.367 42.5841H80.6219V44.6349H77.8709V36.4766H81.7987C82.5516 36.4766 83.2097 36.6003 83.7678 36.8504C84.3259 37.0979 84.7577 37.4559 85.0604 37.9219C85.3632 38.3879 85.5159 38.9328 85.5159 39.5541C85.5159 40.1359 85.3842 40.6466 85.1183 41.081C84.8551 41.5153 84.4734 41.8628 83.9758 42.1182L85.6896 44.6349H82.7517L81.3643 42.5841H81.367ZM76.81 42.5605V44.6349H70.0285V36.4766H76.66V38.5511H72.7322V39.5067H76.1808V41.489H72.7322V42.5605H76.81ZM64.4344 41.9313L63.8157 42.6184V44.6349H61.1121V36.4766H63.8157V39.4356L66.4957 36.4766H69.4915L66.2298 40.0648L69.6547 44.6323H66.4746L64.4344 41.9286V41.9313ZM56.4972 44.8218C55.8207 44.8218 55.1625 44.7455 54.5228 44.5954C53.8831 44.4427 53.3566 44.24 52.9433 43.9847L53.8278 41.9813C54.2174 42.2077 54.6518 42.3867 55.1336 42.5236C55.6153 42.6605 56.0786 42.7263 56.5209 42.7263C56.9026 42.7263 57.1738 42.6894 57.337 42.6157C57.5002 42.542 57.5818 42.4315 57.5818 42.284C57.5818 42.1129 57.4739 41.9839 57.2607 41.8997C57.0474 41.8154 56.6947 41.7207 56.205 41.6206C55.5758 41.489 55.052 41.3468 54.6307 41.1942C54.2122 41.0415 53.8462 40.794 53.5356 40.4491C53.225 40.1043 53.0696 39.6357 53.0696 39.046C53.0696 38.5326 53.2144 38.0667 53.5014 37.6481C53.7883 37.2295 54.2174 36.8978 54.7887 36.6583C55.36 36.4187 56.0523 36.2976 56.8684 36.2976C57.4265 36.2976 57.9767 36.3582 58.5164 36.4793C59.0561 36.6004 59.5326 36.7767 59.9432 37.0084L59.1166 39.0012C58.3163 38.5985 57.5581 38.3958 56.8447 38.3958C56.1313 38.3958 55.7838 38.5669 55.7838 38.9091C55.7838 39.0723 55.8891 39.1934 56.0997 39.275C56.3103 39.3566 56.6552 39.4435 57.1369 39.5383C57.7582 39.6541 58.2821 39.7884 58.7112 39.9411C59.1377 40.0937 59.5089 40.3386 59.8248 40.6808C60.1407 41.023 60.296 41.489 60.296 42.0787C60.296 42.592 60.1512 43.0554 59.8643 43.4713C59.5773 43.8873 59.1482 44.2163 58.5769 44.4612C58.0057 44.706 57.3133 44.8271 56.4972 44.8271V44.8218ZM49.3762 36.4793H52.1272V44.6375H49.3762V36.4793ZM57.416 49.771V57.9293H54.665V54.9229H52.1246V57.9293H49.3735V49.771H52.1246V52.6616H54.665V49.771H57.416Z" fill="white"/>
</mask>
<g mask="url(#mask0_307_547)">
<path d="M104.823 36.2898H49.376V57.9241H104.823V36.2898Z" fill="url(#paint0_linear_307_547)"/>
</g>
<path fill-rule="evenodd" clip-rule="evenodd" d="M36.0236 33.9627C37.0582 35.4632 38.0612 37.6719 39.8987 40.0175V29.0635C39.8119 28.9819 39.7303 28.9134 39.6592 28.8582L36.021 33.9627H36.0236Z" fill="#FDFDFD"/>
<path fill-rule="evenodd" clip-rule="evenodd" d="M37.561 9.15066C38.1797 10.5406 39.3433 12.5203 39.675 13.8787L39.9014 13.4417V6.77346C39.8224 6.71555 39.7461 6.66026 39.6671 6.60498C38.9458 7.70276 38.2139 8.03446 37.561 9.15066Z" fill="#FDFDFD"/>
<mask id="mask1_307_547" style="mask-type:luminance" maskUnits="userSpaceOnUse" x="3" y="6" width="43" height="57">
<path d="M40.402 50.6873C46.936 41.5154 45.7856 34.5418 41.9394 25.8781C46.32 23.9669 44.4719 18.1357 44.2929 7.84773C44.2561 5.78381 44.1086 6.32085 43.1162 7.24751C42.3527 7.96093 41.7025 8.82967 41.3497 10.0643C41.0549 11.0989 41.7788 14.0158 42.2158 14.9319C39.4727 14.2949 35.745 12.897 34.9131 18.2147C34.9131 18.9334 35.2554 20.0154 35.5397 20.5156C37.1587 23.3798 40.2941 21.9819 40.7548 21.874C40.1203 20.9052 38.6724 20.4129 39.6596 18.9545C40.7363 17.3618 44.6931 19.6231 41.068 22.5347C40.144 23.2771 39.5491 23.7247 38.5697 24.3881C38.9594 26.2282 40.3204 28.071 40.7416 29.8717C39.9782 29.2688 39.5754 28.5449 38.8567 27.7788C37.6115 26.4467 29.1952 18.7202 19.0151 16.8906C10.3093 15.3321 3.53836 8.45585 3.1856 8.36634C3.17507 10.8383 4.68879 15.1109 5.85238 17.0064C6.51841 18.091 7.19235 19.5837 7.85312 20.4761C9.80647 23.1034 13.9685 26.1729 17.0407 27.7077C19.2784 28.8239 22.7376 30.2587 25.4359 30.256C24.4856 31.6829 23.7985 31.7592 22.8639 33.5257C18.2622 42.1973 28.8293 50.5267 35.9925 45.5591C37.9616 44.1928 38.933 41.5365 38.933 40.473C38.933 38.5012 37.8432 37.2665 37.4825 35.7238C37.2666 36.0003 37.0508 36.2767 36.8323 36.5505C36.7875 36.6136 36.7322 36.7084 36.6901 36.7742C36.4663 37.1244 36.2373 37.5614 36.0083 37.9115C33.5021 41.7234 29.8086 39.1672 29.8086 37.1875C29.8086 33.1176 35.645 30.8931 39.2858 34.2786C39.886 34.8367 40.8232 36.4452 41.1154 37.1875C43.9612 44.4218 36.9665 47.9942 35.6476 49.958C36.7243 52.1088 38.554 54.5176 39.9492 56.6C41.2655 58.5665 42.5818 60.533 43.9007 62.4995C44.2166 62.9076 44.1797 62.8549 44.2798 62.955C44.2798 60.2513 44.8537 57.6556 43.3794 55.5127C42.0868 53.6384 41.255 51.9219 40.4046 50.6846" fill="white"/>
</mask>
<g mask="url(#mask1_307_547)">
<path d="M46.9362 5.78369H3.17529V62.9548H46.9362V5.78369Z" fill="url(#paint1_linear_307_547)"/>
</g>
<mask id="mask2_307_547" style="mask-type:luminance" maskUnits="userSpaceOnUse" x="3" y="6" width="42" height="57">
<path d="M40.3361 50.7293C46.8701 41.5574 45.7197 34.5838 41.8735 25.9201C46.2541 24.0088 44.406 18.1777 44.227 7.88972C44.1901 5.8258 44.0427 6.36284 43.0503 7.2895C42.2868 8.00292 41.6366 8.87166 41.2838 10.1063C40.989 11.1409 41.7129 14.0578 42.1499 14.9739C39.4068 14.3368 35.6791 12.939 34.8472 18.2567C34.8472 18.9754 35.1894 20.0574 35.4738 20.5576C37.0928 23.4218 40.2282 22.0239 40.6889 21.916C40.0544 20.9472 38.6065 20.4549 39.5937 18.9965C40.6704 17.4038 44.6272 19.6651 41.0021 22.5767C40.0781 23.3191 39.4831 23.7667 38.5038 24.4301C38.8934 26.2702 40.2545 28.113 40.6757 29.9137C39.9122 29.3108 39.5095 28.5869 38.7908 27.8208C37.5456 26.4887 29.1293 18.7622 18.9492 16.9325C10.246 15.3741 3.47508 8.49784 3.11968 8.40833C3.10915 10.8803 4.62287 15.1529 5.78646 17.0484C6.4525 18.133 7.12643 19.6256 7.7872 20.5181C9.74055 23.1454 13.9026 26.2176 16.9748 27.7497C19.2125 28.8659 22.6717 30.3006 25.37 30.298C24.4197 31.7249 23.7326 31.8012 22.798 33.5676C18.1963 42.2393 28.7634 50.5687 35.9266 45.601C37.8957 44.2348 38.8671 41.5785 38.8671 40.515C38.8671 38.5432 37.7772 37.3085 37.4166 35.7658C37.2007 36.0422 36.9848 36.3187 36.7663 36.5924C36.7216 36.6556 36.6663 36.7504 36.6242 36.8162C36.4004 37.1663 36.1714 37.6033 35.9424 37.9535C33.4362 41.7654 29.7427 39.2092 29.7427 37.2295C29.7427 33.1596 35.5791 30.9351 39.2199 34.3206C39.8201 34.8787 40.7573 36.4871 41.0495 37.2295C43.8953 44.4638 36.9006 48.0362 35.5817 50C36.6584 52.1508 38.488 54.5596 39.8833 56.642C41.1996 58.6085 42.5158 60.575 43.8348 62.5415C44.1507 62.9496 44.1138 62.8969 44.2138 62.997C44.2138 60.2933 44.7877 57.6976 43.3135 55.5547C42.0209 53.6804 41.189 51.9639 40.3387 50.7266" fill="white"/>
</mask>
<g mask="url(#mask2_307_547)">
<path d="M46.8727 5.82568H3.11182V62.9968H46.8727V5.82568Z" fill="url(#paint2_linear_307_547)"/>
</g>
<mask id="mask3_307_547" style="mask-type:luminance" maskUnits="userSpaceOnUse" x="3" y="6" width="42" height="58">
<path d="M40.2726 50.7715C46.8066 41.5997 45.6562 34.626 41.81 25.9623C46.1906 24.0511 44.3425 18.22 44.1635 7.93196C44.1267 5.86804 43.9792 6.40508 42.9868 7.33174C42.2233 8.04516 41.5731 8.9139 41.2203 10.1486C40.9255 11.1832 41.6494 14.1 42.0864 15.0162C39.3433 14.3791 35.6156 12.9812 34.7837 18.299C34.7837 19.0176 35.126 20.0996 35.4103 20.5998C37.0293 23.464 40.1647 22.0661 40.6254 21.9582C39.9909 20.9894 38.543 20.4971 39.5302 19.0387C40.6069 17.446 44.5637 19.7074 40.9386 22.619C40.0146 23.3614 39.4197 23.8089 38.4404 24.4723C38.83 26.3124 40.191 28.1552 40.6122 29.9559C39.8488 29.353 39.446 28.6291 38.7273 27.863C37.4821 26.5309 29.0658 18.8044 18.8857 16.9748C10.1799 15.4163 3.40897 8.54008 3.05621 8.45057C3.04568 10.9225 4.55939 15.1952 5.72298 17.0906C6.38902 18.1752 7.06295 19.6679 7.72372 20.5603C9.67708 23.1876 13.8391 26.2572 16.9113 27.7919C19.149 28.9081 22.6082 30.3429 25.3065 30.3403C24.3562 31.7671 23.6691 31.8434 22.7345 33.6099C18.1328 42.2815 28.6999 50.6109 35.8631 45.6433C37.8322 44.277 38.8036 41.6207 38.8036 40.5572C38.8036 38.5854 37.7138 37.3507 37.3531 35.8081C37.1372 36.0845 36.9214 36.3609 36.7029 36.6347C36.6581 36.6979 36.6028 36.7926 36.5607 36.8585C36.3369 37.2086 36.1079 37.6456 35.8789 37.9957C33.3727 41.8077 29.6792 39.2514 29.6792 37.2718C29.6792 33.2018 35.5156 30.9773 39.1564 34.3628C39.7566 34.9209 40.6938 36.5294 40.986 37.2718C43.8318 44.506 36.8371 48.0784 35.5182 50.0423C36.5949 52.1931 38.4246 54.6019 39.8198 56.6842C41.1361 58.6507 42.4524 60.6172 43.7713 62.5838C44.0846 62.9918 44.0503 62.9392 44.1504 63.0392C44.1504 60.3356 44.7243 57.7399 43.25 55.597C41.9574 53.7226 41.1256 52.0062 40.2752 50.7689" fill="white"/>
</mask>
<g mask="url(#mask3_307_547)">
<path d="M46.8068 5.86792H3.0459V63.0391H46.8068V5.86792Z" fill="url(#paint3_linear_307_547)"/>
</g>
<mask id="mask4_307_547" style="mask-type:luminance" maskUnits="userSpaceOnUse" x="2" y="6" width="43" height="58">
<path d="M40.2072 50.8135C46.7412 41.6417 45.5908 34.668 41.7446 26.0043C46.1252 24.0931 44.2771 18.262 44.0981 7.97395C44.0612 5.91003 43.9138 6.44707 42.9213 7.37373C42.1579 8.08715 41.5077 8.95589 41.1549 10.1906C40.8601 11.2252 41.584 14.142 42.021 15.0582C39.2779 14.4211 35.5502 13.0232 34.7183 18.3409C34.7183 19.0596 35.0605 20.1416 35.3449 20.6418C36.9639 23.506 40.0993 22.1081 40.5599 22.0002C39.9255 21.0314 38.4776 20.5391 39.4648 19.0807C40.5415 17.488 44.4982 19.7494 40.8732 22.661C39.9492 23.4033 39.3542 23.8509 38.3749 24.5143C38.7645 26.3544 40.1256 28.1972 40.5468 29.9979C39.7833 29.395 39.3806 28.6711 38.6619 27.905C37.4167 26.5729 29.0004 18.8464 18.8203 17.0168C10.1171 15.4557 3.34617 8.57944 2.99078 8.49256C2.98025 10.9645 4.49397 15.2372 5.65755 17.1326C6.32359 18.2172 6.99752 19.7099 7.65829 20.6023C9.61165 23.2296 13.7737 26.3018 16.8459 27.8339C19.0836 28.9501 22.5427 30.3849 25.2411 30.3822C24.2908 31.8091 23.6037 31.8854 22.6691 33.6519C18.0674 42.3235 28.6345 50.6529 35.7977 45.6853C37.7668 44.319 38.7382 41.6627 38.7382 40.5992C38.7382 38.6274 37.6483 37.3927 37.2877 35.8501C37.0718 36.1265 36.8559 36.4029 36.6374 36.6767C36.5927 36.7399 36.5374 36.8346 36.4953 36.9004C36.2715 37.2506 36.0425 37.6876 35.8134 38.0377C33.3073 41.8496 29.6138 39.2934 29.6138 37.3138C29.6138 33.2438 35.4502 31.0193 39.091 34.4048C39.6912 34.9629 40.6284 36.5714 40.9206 37.3138C43.7664 44.548 36.7717 48.1204 35.4528 50.0843C36.5295 52.2351 38.3591 54.6439 39.7544 56.7262C41.0707 58.6927 42.3869 60.6592 43.7058 62.6258C44.0218 63.0338 43.9849 62.9811 44.0849 63.0812C44.0849 60.3776 44.6588 57.7819 43.1846 55.639C41.892 53.7646 41.0601 52.0482 40.2098 50.8109" fill="white"/>
</mask>
<g mask="url(#mask4_307_547)">
<path d="M46.7438 5.90991H2.98291V63.0811H46.7438V5.90991Z" fill="url(#paint4_linear_307_547)"/>
</g>
<mask id="mask5_307_547" style="mask-type:luminance" maskUnits="userSpaceOnUse" x="2" y="6" width="43" height="58">
<path d="M40.1437 50.8557C46.6777 41.6839 45.5273 34.7103 41.6811 26.0465C46.0617 24.1353 44.2136 18.3042 44.0346 8.01619C43.9978 5.95226 43.8503 6.48931 42.8579 7.41596C42.0944 8.12939 41.4442 8.99813 41.0914 10.2328C40.7966 11.2674 41.5205 14.1843 41.9575 15.1004C39.2144 14.4633 35.4867 13.0654 34.6548 18.3832C34.6548 19.1019 34.9971 20.1838 35.2814 20.684C36.9004 23.5483 40.0358 22.1504 40.4965 22.0424C39.862 21.0737 38.4141 20.5814 39.4013 19.1229C40.478 17.5302 44.4348 19.7916 40.8097 22.7032C39.8857 23.4456 39.2908 23.8931 38.3114 24.5565C38.7011 26.3967 40.0621 28.2395 40.4833 30.0401C39.7199 29.4373 39.3171 28.7133 38.5984 27.9472C37.3532 26.6152 28.9369 18.8886 18.7568 17.059C10.051 15.4979 3.28006 8.62167 2.9273 8.53217C2.91677 11.0041 4.43049 15.2768 5.59408 17.1722C6.26011 18.2568 6.93405 19.7495 7.59482 20.6419C9.54817 23.2692 13.7102 26.3388 16.7824 27.8735C19.0201 28.9897 22.4793 30.4245 25.1776 30.4218C24.2273 31.8487 23.5402 31.925 22.6056 33.6915C18.0039 42.3631 28.571 50.6925 35.7342 45.7249C37.7033 44.3586 38.6747 41.7023 38.6747 40.6388C38.6747 38.667 37.5849 37.4323 37.2242 35.8897C37.0083 36.1661 36.7925 36.4425 36.574 36.7163C36.5292 36.7795 36.4739 36.8742 36.4318 36.9401C36.208 37.2902 35.979 37.7272 35.75 38.0773C33.2438 41.8892 29.5503 39.333 29.5503 37.3534C29.5503 33.2834 35.3867 31.0589 39.0275 34.4444C39.6277 35.0025 40.5649 36.611 40.8571 37.3534C43.7029 44.5876 36.7082 48.16 35.3893 50.1239C36.466 52.2747 38.2957 54.6835 39.6909 56.7658C41.0072 58.7323 42.3235 60.6988 43.6424 62.6654C43.9556 63.0734 43.9214 63.0208 44.0215 63.1208C44.0215 60.4172 44.5954 57.8215 43.1211 55.6786C41.8285 53.8042 40.9967 52.0878 40.1463 50.8505" fill="white"/>
</mask>
<g mask="url(#mask5_307_547)">
<path d="M46.6779 5.94971H2.91699V63.1209H46.6779V5.94971Z" fill="url(#paint5_linear_307_547)"/>
</g>
<mask id="mask6_307_547" style="mask-type:luminance" maskUnits="userSpaceOnUse" x="2" y="6" width="43" height="58">
<path d="M40.0778 50.895C46.6118 41.7232 45.4614 34.7496 41.6152 26.0858C45.9958 24.1746 44.1477 18.3435 43.9687 8.05549C43.9318 5.99157 43.7844 6.52861 42.792 7.45527C42.0285 8.16869 41.3783 9.03744 41.0255 10.2721C40.7307 11.3067 41.4546 14.2236 41.8916 15.1397C39.1485 14.5026 35.4208 13.1047 34.5889 18.4225C34.5889 19.1412 34.9311 20.2232 35.2155 20.7233C36.8345 23.5876 39.9699 22.1897 40.4305 22.0817C39.7961 21.113 38.3482 20.6207 39.3354 19.1622C40.4121 17.5695 44.3689 19.8309 40.7438 22.7425C39.8198 23.4849 39.2248 23.9324 38.2455 24.5958C38.6351 26.436 39.9962 28.2788 40.4174 30.0794C39.6539 29.4766 39.2512 28.7526 38.5325 27.9866C37.2873 26.6545 28.871 18.9279 18.6909 17.0983C9.9877 15.5398 3.21678 8.66361 2.86138 8.57411C2.85085 11.0461 4.36457 15.3187 5.52816 17.2141C6.1942 18.2988 6.86813 19.7914 7.5289 20.6839C9.48225 23.3111 13.6443 26.3833 16.7165 27.9155C18.9542 29.0317 22.4134 30.4664 25.1117 30.4638C24.1614 31.8906 23.4743 31.967 22.5397 33.7334C17.938 42.405 28.5051 50.7344 35.6683 45.7668C37.6374 44.4005 38.6088 41.7443 38.6088 40.6807C38.6088 38.7089 37.5189 37.4743 37.1583 35.9316C36.9424 36.208 36.7265 36.4844 36.508 36.7582C36.4633 36.8214 36.408 36.9162 36.3659 36.982C36.1421 37.3321 35.9131 37.7691 35.6841 38.1193C33.1779 41.9312 29.4844 39.375 29.4844 37.3953C29.4844 33.3254 35.3208 31.1009 38.9616 34.4863C39.5618 35.0444 40.499 36.6529 40.7912 37.3953C43.637 44.6296 36.6423 48.2019 35.3234 50.1658C36.4001 52.3166 38.2297 54.7254 39.625 56.8077C40.9413 58.7743 42.2575 60.7408 43.5765 62.7073C43.8924 63.1153 43.8555 63.0627 43.9555 63.1627C43.9555 60.4591 44.5294 57.8634 43.0552 55.7205C41.7626 53.8461 40.9307 52.1297 40.0804 50.8924" fill="white"/>
</mask>
<g mask="url(#mask6_307_547)">
<path d="M46.6144 5.99146H2.85352V63.1626H46.6144V5.99146Z" fill="url(#paint6_linear_307_547)"/>
</g>
<mask id="mask7_307_547" style="mask-type:luminance" maskUnits="userSpaceOnUse" x="2" y="6" width="43" height="58">
<path d="M40.0148 50.9373C46.5488 41.7655 45.3984 34.7918 41.5522 26.1281C45.9328 24.2169 44.0847 18.3857 43.9057 8.09773C43.8689 6.03381 43.7214 6.57085 42.729 7.49751C41.9655 8.21093 41.3153 9.07967 40.9625 10.3143C40.6677 11.3489 41.3916 14.2658 41.8286 15.1819C39.0855 14.5449 35.3578 13.147 34.5259 18.4647C34.5259 19.1834 34.8682 20.2654 35.1525 20.7656C36.7715 23.6298 39.9069 22.2319 40.3676 22.124C39.7331 21.1552 38.2852 20.6629 39.2724 19.2045C40.3491 17.6118 44.3059 19.8731 40.6808 22.7847C39.7568 23.5271 39.1618 23.9747 38.1825 24.6381C38.5722 26.4782 39.9332 28.321 40.3544 30.1217C39.591 29.5188 39.1882 28.7949 38.4695 28.0288C37.2243 26.6967 28.808 18.9702 18.6279 17.1406C9.92208 15.5821 3.15116 8.70585 2.79839 8.61634C2.78786 11.0883 4.30158 15.3609 5.46517 17.2564C6.13121 18.341 6.80514 19.8337 7.46591 20.7261C9.41927 23.3534 13.5813 26.4256 16.6535 27.9577C18.8912 29.0739 22.3504 30.5087 25.0487 30.506C24.0984 31.9329 23.4113 32.0092 22.4767 33.7757C17.875 42.4473 28.4421 50.7767 35.6053 45.8091C37.5744 44.4428 38.5458 41.7865 38.5458 40.723C38.5458 38.7512 37.456 37.5165 37.0953 35.9738C36.8794 36.2503 36.6636 36.5267 36.4451 36.8005C36.4003 36.8636 36.345 36.9584 36.3029 37.0242C36.0791 37.3744 35.8501 37.8114 35.6211 38.1615C33.1149 41.9734 29.4214 39.4172 29.4214 37.4375C29.4214 33.3676 35.2578 31.1431 38.8986 34.5286C39.4988 35.0867 40.436 36.6952 40.7282 37.4375C43.574 44.6718 36.5793 48.2442 35.2604 50.208C36.3371 52.3588 38.1667 54.7676 39.562 56.85C40.8783 58.8165 42.1946 60.783 43.5135 62.7495C43.8294 63.1576 43.7925 63.1049 43.8926 63.205C43.8926 60.5013 44.4664 57.9056 42.9922 55.7627C41.6996 53.8884 40.8677 52.1719 40.0174 50.9346" fill="white"/>
</mask>
<g mask="url(#mask7_307_547)">
<path d="M46.549 6.03369H2.78809V63.2048H46.549V6.03369Z" fill="url(#paint7_linear_307_547)"/>
</g>
<mask id="mask8_307_547" style="mask-type:luminance" maskUnits="userSpaceOnUse" x="2" y="6" width="43" height="58">
<path d="M39.9489 50.9795C46.4829 41.8077 45.3325 34.8341 41.4863 26.1703C45.8669 24.2591 44.0188 18.428 43.8398 8.13997C43.8029 6.07604 43.6555 6.61308 42.663 7.53974C41.8996 8.25317 41.2494 9.12191 40.8966 10.3566C40.6018 11.3912 41.3257 14.308 41.7627 15.2242C39.0196 14.5871 35.2919 13.1892 34.46 18.507C34.46 19.2256 34.8022 20.3076 35.0866 20.8078C36.7056 23.672 39.8409 22.2741 40.3016 22.1662C39.6672 21.1974 38.2193 20.7051 39.2065 19.2467C40.2832 17.654 44.2399 19.9154 40.6149 22.827C39.6909 23.5694 39.0959 24.0169 38.1166 24.6803C38.5062 26.5205 39.8673 28.3632 40.2885 30.1639C39.525 29.5611 39.1223 28.8371 38.4036 28.071C37.1584 26.739 28.7421 19.0124 18.562 17.1828C9.8588 15.6243 3.08787 8.74809 2.73248 8.65858C2.72195 11.1305 4.23566 15.4032 5.39925 17.2986C6.06529 18.3832 6.73922 19.8759 7.39999 20.7683C9.35335 23.3956 13.5154 26.4678 16.5876 27.9999C18.8253 29.1161 22.2845 30.5509 24.9828 30.5483C24.0325 31.9751 23.3454 32.0514 22.4108 33.8179C17.8091 42.4895 28.3762 50.8189 35.5394 45.8513C37.5085 44.485 38.4799 41.8288 38.4799 40.7652C38.4799 38.7934 37.39 37.5587 37.0294 36.0161C36.8135 36.2925 36.5976 36.5689 36.3791 36.8427C36.3344 36.9059 36.2791 37.0006 36.237 37.0665C36.0132 37.4166 35.7842 37.8536 35.5551 38.2037C33.049 42.0157 29.3555 39.4594 29.3555 37.4798C29.3555 33.4098 35.1919 31.1853 38.8327 34.5708C39.4329 35.1289 40.3701 36.7374 40.6623 37.4798C43.5081 44.714 36.5134 48.2864 35.1945 50.2503C36.2712 52.4011 38.1008 54.8099 39.4961 56.8922C40.8124 58.8587 42.1286 60.8253 43.4475 62.7918C43.7635 63.1998 43.7266 63.1472 43.8266 63.2472C43.8266 60.5436 44.4005 57.9479 42.9263 55.805C41.6337 53.9306 40.8018 52.2142 39.9515 50.9769" fill="white"/>
</mask>
<g mask="url(#mask8_307_547)">
<path d="M46.4855 6.07593H2.72461V63.2471H46.4855V6.07593Z" fill="url(#paint8_linear_307_547)"/>
</g>
<mask id="mask9_307_547" style="mask-type:luminance" maskUnits="userSpaceOnUse" x="2" y="6" width="43" height="58">
<path d="M39.8859 51.0215C46.4199 41.8497 45.2695 34.876 41.4233 26.2123C45.8039 24.3011 43.9558 18.47 43.7768 8.18196C43.74 6.11804 43.5925 6.65508 42.6001 7.58174C41.8366 8.29516 41.1864 9.1639 40.8336 10.3986C40.5388 11.4332 41.2627 14.35 41.6997 15.2662C38.9566 14.6291 35.2289 13.2312 34.397 18.549C34.397 19.2676 34.7393 20.3496 35.0236 20.8498C36.6426 23.714 39.778 22.3161 40.2387 22.2082C39.6042 21.2394 38.1563 20.7471 39.1435 19.2887C40.2202 17.696 44.177 19.9574 40.5519 22.869C39.6279 23.6114 39.0329 24.0589 38.0536 24.7223C38.4433 26.5624 39.8043 28.4052 40.2255 30.2059C39.4621 29.603 39.0593 28.8791 38.3406 28.113C37.0954 26.7809 28.6791 19.0544 18.499 17.2248C9.79318 15.6663 3.02225 8.79008 2.66949 8.70057C2.65896 11.1725 4.17268 15.4452 5.33626 17.3406C6.0023 18.4252 6.67623 19.9179 7.33701 20.8103C9.29036 23.4376 13.4524 26.5098 16.5246 28.0419C18.7623 29.1581 22.2215 30.5929 24.9198 30.5903C23.9695 32.0171 23.2824 32.0934 22.3478 33.8599C17.7461 42.5315 28.3132 50.8609 35.4764 45.8933C37.4455 44.527 38.4169 41.8707 38.4169 40.8072C38.4169 38.8354 37.3271 37.6007 36.9664 36.0581C36.7505 36.3345 36.5347 36.6109 36.3162 36.8847C36.2714 36.9479 36.2161 37.0426 36.174 37.1085C35.9502 37.4586 35.7212 37.8956 35.4922 38.2457C32.986 42.0577 29.2925 39.5014 29.2925 37.5218C29.2925 33.4518 35.1289 31.2273 38.7697 34.6128C39.3699 35.1709 40.3071 36.7794 40.5993 37.5218C43.4451 44.756 36.4504 48.3284 35.1315 50.2923C36.2082 52.4431 38.0378 54.8519 39.4331 56.9342C40.7494 58.9007 42.0657 60.8672 43.3846 62.8338C43.7005 63.2418 43.6636 63.1892 43.7636 63.2892C43.7636 60.5856 44.3375 57.9899 42.8633 55.847C41.5707 53.9726 40.7388 52.2562 39.8885 51.0189" fill="white"/>
</mask>
<g mask="url(#mask9_307_547)">
<path d="M46.4201 6.11792H2.65918V63.2891H46.4201V6.11792Z" fill="url(#paint9_linear_307_547)"/>
</g>
<mask id="mask10_307_547" style="mask-type:luminance" maskUnits="userSpaceOnUse" x="2" y="6" width="43" height="58">
<path d="M39.82 51.0637C46.354 41.8919 45.2036 34.9183 41.3574 26.2546C45.738 24.3433 43.8899 18.5122 43.7109 8.22419C43.674 6.16027 43.5266 6.69731 42.5341 7.62397C41.7707 8.33739 41.1205 9.20614 40.7677 10.4408C40.4729 11.4754 41.1968 14.3923 41.6338 15.3084C38.8907 14.6713 35.163 13.2734 34.3311 18.5912C34.3311 19.3099 34.6733 20.3919 34.9576 20.892C36.5767 23.7563 39.712 22.3584 40.1727 22.2504C39.5383 21.2817 38.0904 20.7894 39.0776 19.3309C40.1543 17.7382 44.111 19.9996 40.486 22.9112C39.562 23.6536 38.967 24.1011 37.9877 24.7645C38.3773 26.6047 39.7384 28.4475 40.1596 30.2481C39.3961 29.6453 38.9934 28.9213 38.2747 28.1553C37.0295 26.8232 28.6132 19.0966 18.4331 17.267C9.72989 15.7085 2.95896 8.83231 2.60357 8.74281C2.59304 11.2148 4.10676 15.4874 5.27035 17.3828C5.93638 18.4675 6.61032 19.9601 7.27109 20.8526C9.22444 23.4798 13.3865 26.5494 16.4587 28.0842C18.6964 29.2004 22.1555 30.6351 24.8539 30.6325C23.9036 32.0593 23.2165 32.1357 22.2819 33.9021C17.6802 42.5737 28.2473 50.9031 35.4104 45.9355C37.3796 44.5692 38.351 41.913 38.351 40.8494C38.351 38.8776 37.2611 37.643 36.9005 36.1003C36.6846 36.3767 36.4687 36.6531 36.2502 36.9269C36.2055 36.9901 36.1502 37.0849 36.1081 37.1507C35.8843 37.5008 35.6553 37.9378 35.4262 38.288C32.9201 42.0999 29.2266 39.5437 29.2266 37.564C29.2266 33.4941 35.063 31.2696 38.7038 34.655C39.304 35.2131 40.2412 36.8216 40.5334 37.564C43.3792 44.7983 36.3845 48.3706 35.0656 50.3345C36.1423 52.4853 37.9719 54.8941 39.3672 56.9764C40.6835 58.943 41.9997 60.9095 43.3186 62.876C43.6345 63.284 43.5977 63.2314 43.6977 63.3314C43.6977 60.6278 44.2716 58.0321 42.7974 55.8892C41.5048 54.0148 40.6729 52.2984 39.8226 51.0611" fill="white"/>
</mask>
<g mask="url(#mask10_307_547)">
<path d="M46.3566 6.16016H2.5957V63.3313H46.3566V6.16016Z" fill="url(#paint10_linear_307_547)"/>
</g>
<mask id="mask11_307_547" style="mask-type:luminance" maskUnits="userSpaceOnUse" x="2" y="6" width="43" height="58">
<path d="M39.757 51.1057C46.291 41.9339 45.1406 34.9603 41.2944 26.2965C45.675 24.3853 43.8269 18.5542 43.6479 8.26619C43.611 6.20226 43.4636 6.73931 42.4711 7.66596C41.7077 8.37939 41.0575 9.24813 40.7047 10.4828C40.4099 11.5174 41.1338 14.4343 41.5708 15.3504C38.8277 14.7133 35.1 13.3154 34.2681 18.6332C34.2681 19.3519 34.6103 20.4338 34.8947 20.934C36.5137 23.7983 39.6491 22.4004 40.1097 22.2924C39.4753 21.3237 38.0274 20.8314 39.0146 19.3729C40.0913 17.7802 44.048 20.0416 40.423 22.9532C39.499 23.6956 38.904 24.1431 37.9247 24.8065C38.3143 26.6467 39.6754 28.4895 40.0966 30.2901C39.3331 29.6873 38.9304 28.9633 38.2117 28.1972C36.9665 26.8652 28.5502 19.1386 18.3701 17.309C9.66427 15.7505 2.89334 8.87167 2.54058 8.7848C2.53005 11.2568 4.04377 15.5294 5.20736 17.4248C5.87339 18.5095 6.54733 20.0021 7.2081 20.8945C9.16145 23.5218 13.3235 26.594 16.3957 28.1262C18.6334 29.2424 22.0926 30.6771 24.7909 30.6745C23.8406 32.1013 23.1535 32.1777 22.2189 33.9441C17.6172 42.6157 28.1843 50.9451 35.3475 45.9775C37.3166 44.6112 38.288 41.955 38.288 40.8914C38.288 38.9196 37.1981 37.685 36.8375 36.1423C36.6216 36.4187 36.4057 36.6951 36.1872 36.9689C36.1425 37.0321 36.0872 37.1269 36.0451 37.1927C35.8213 37.5428 35.5923 37.9798 35.3633 38.3299C32.8571 42.1419 29.1636 39.5857 29.1636 37.606C29.1636 33.5361 35 31.3116 38.6408 34.697C39.241 35.2551 40.1782 36.8636 40.4704 37.606C43.3162 44.8402 36.3215 48.4126 35.0026 50.3765C36.0793 52.5273 37.9089 54.9361 39.3042 57.0184C40.6205 58.985 41.9367 60.9515 43.2556 62.918C43.5716 63.326 43.5347 63.2734 43.6347 63.3734C43.6347 60.6698 44.2086 58.0741 42.7344 55.9312C41.4418 54.0568 40.6099 52.3404 39.7596 51.1031" fill="white"/>
</mask>
<g mask="url(#mask11_307_547)">
<path d="M46.2912 6.20215H2.53027V63.3733H46.2912V6.20215Z" fill="url(#paint11_linear_307_547)"/>
</g>
<mask id="mask12_307_547" style="mask-type:luminance" maskUnits="userSpaceOnUse" x="2" y="6" width="43" height="58">
<path d="M39.6911 51.148C46.2251 41.9761 45.0746 35.0025 41.2285 26.3388C45.609 24.4275 43.761 18.5964 43.582 8.30842C43.5451 6.2445 43.3977 6.78154 42.4052 7.7082C41.6418 8.42162 40.9916 9.29037 40.6388 10.525C40.3439 11.5596 41.0679 14.4765 41.5049 15.3926C38.7618 14.7555 35.0341 13.3577 34.2022 18.6754C34.2022 19.3941 34.5444 20.4761 34.8287 20.9763C36.4478 23.8405 39.5831 22.4426 40.0438 22.3347C39.4094 21.3659 37.9615 20.8736 38.9487 19.4152C40.0254 17.8225 43.9821 20.0838 40.3571 22.9954C39.4331 23.7378 38.8381 24.1854 37.8588 24.8488C38.2484 26.6889 39.6095 28.5317 40.0307 30.3324C39.2672 29.7295 38.8644 29.0056 38.1458 28.2395C36.9006 26.9074 28.4843 19.1809 18.3042 17.3512C9.60099 15.7901 2.83006 8.91391 2.47466 8.82704C2.46413 11.299 3.97785 15.5716 5.14144 17.4671C5.80748 18.5517 6.48141 20.0443 7.14218 20.9368C9.09554 23.5641 13.2576 26.6336 16.3298 28.1684C18.5675 29.2846 22.0266 30.7193 24.725 30.7167C23.7747 32.1436 23.0876 32.2199 22.153 33.9863C17.5513 42.658 28.1184 50.9874 35.2815 46.0197C37.2507 44.6535 38.2221 41.9972 38.2221 40.9337C38.2221 38.9619 37.1322 37.7272 36.7716 36.1845C36.5557 36.4609 36.3398 36.7374 36.1213 37.0112C36.0766 37.0743 36.0213 37.1691 35.9792 37.2349C35.7554 37.585 35.5264 38.0221 35.2973 38.3722C32.7911 42.1841 29.0977 39.6279 29.0977 37.6482C29.0977 33.5783 34.934 31.3538 38.5749 34.7393C39.1751 35.2974 40.1123 36.9058 40.4045 37.6482C43.2503 44.8825 36.2556 48.4549 34.9367 50.4187C36.0134 52.5695 37.843 54.9783 39.2383 57.0607C40.5545 59.0272 41.8708 60.9937 43.1897 62.9602C43.5056 63.3683 43.4688 63.3156 43.5688 63.4157C43.5688 60.712 44.1427 58.1163 42.6685 55.9734C41.3759 54.0991 40.544 52.3826 39.6937 51.1453" fill="white"/>
</mask>
<g mask="url(#mask12_307_547)">
<path d="M46.2277 6.24438H2.4668V63.4155H46.2277V6.24438Z" fill="url(#paint12_linear_307_547)"/>
</g>
<mask id="mask13_307_547" style="mask-type:luminance" maskUnits="userSpaceOnUse" x="2" y="6" width="43" height="58">
<path d="M39.6276 51.19C46.1616 42.0181 45.0112 35.0445 41.165 26.3808C45.5456 24.4695 43.6975 18.6384 43.5185 8.35041C43.4817 6.28649 43.3342 6.82353 42.3418 7.75019C41.5783 8.46362 40.9281 9.33236 40.5753 10.567C40.2805 11.6016 41.0044 14.5185 41.4414 15.4346C38.6983 14.7975 34.9706 13.3997 34.1387 18.7174C34.1387 19.4361 34.481 20.5181 34.7653 21.0183C36.3843 23.8825 39.5197 22.4846 39.9804 22.3767C39.3459 21.4079 37.898 20.9156 38.8852 19.4572C39.9619 17.8645 43.9187 20.1258 40.2936 23.0374C39.3696 23.7798 38.7746 24.2273 37.7953 24.8907C38.185 26.7309 39.546 28.5737 39.9672 30.3744C39.2038 29.7715 38.801 29.0475 38.0823 28.2815C36.8371 26.9494 28.4208 19.2229 18.2407 17.3932C9.53488 15.8321 2.76395 8.9559 2.41119 8.8664C2.40066 11.3384 3.91438 15.611 5.07796 17.5064C5.744 18.591 6.41793 20.0837 7.0787 20.9761C9.03206 23.6034 13.1941 26.6756 16.2663 28.2078C18.504 29.324 21.9632 30.7587 24.6615 30.7561C23.7112 32.1829 23.0241 32.2593 22.0895 34.0257C17.4878 42.6973 28.0549 51.0267 35.2181 46.0591C37.1872 44.6928 38.1586 42.0366 38.1586 40.973C38.1586 39.0012 37.0688 37.7666 36.7081 36.2239C36.4922 36.5003 36.2764 36.7767 36.0579 37.0505C36.0131 37.1137 35.9578 37.2085 35.9157 37.2743C35.6919 37.6244 35.4629 38.0614 35.2339 38.4115C32.7277 42.2235 29.0342 39.6673 29.0342 37.6876C29.0342 33.6177 34.8706 31.3932 38.5114 34.7786C39.1116 35.3367 40.0488 36.9452 40.341 37.6876C43.1868 44.9218 36.1921 48.4942 34.8732 50.4581C35.9499 52.6089 37.7795 55.0177 39.1748 57.1C40.4911 59.0666 41.8074 61.0331 43.1263 62.9996C43.4422 63.4076 43.4053 63.355 43.5053 63.455C43.5053 60.7514 44.0792 58.1557 42.605 56.0128C41.3124 54.1384 40.4805 52.422 39.6302 51.1847" fill="white"/>
</mask>
<g mask="url(#mask13_307_547)">
<path d="M46.1618 6.28394H2.40088V63.4551H46.1618V6.28394Z" fill="url(#paint13_linear_307_547)"/>
</g>
<mask id="mask14_307_547" style="mask-type:luminance" maskUnits="userSpaceOnUse" x="2" y="6" width="43" height="58">
<path d="M39.5622 51.2295C46.0962 42.0577 44.9457 35.0841 41.0996 26.4203C45.4801 24.5091 43.6321 18.678 43.4531 8.38997C43.4162 6.32604 43.2688 6.86308 42.2763 7.78974C41.5129 8.50317 40.8626 9.37191 40.5099 10.6066C40.215 11.6412 40.939 14.558 41.376 15.4742C38.6329 14.8371 34.9052 13.4392 34.0733 18.757C34.0733 19.4756 34.4155 20.5576 34.6998 21.0578C36.3189 23.922 39.4542 22.5241 39.9149 22.4162C39.2805 21.4474 37.8326 20.9551 38.8198 19.4967C39.8965 17.904 43.8532 20.1654 40.2282 23.077C39.3042 23.8194 38.7092 24.2669 37.7299 24.9303C38.1195 26.7705 39.4806 28.6132 39.9018 30.4139C39.1383 29.8111 38.7355 29.0871 38.0169 28.321C36.7717 26.989 28.3554 19.2624 18.1753 17.4328C9.47208 15.8743 2.69852 8.99809 2.34576 8.90858C2.33523 11.3805 3.84895 15.6532 5.01253 17.5486C5.67857 18.6332 6.3525 20.1259 7.01327 21.0183C8.96663 23.6456 13.1287 26.7152 16.2009 28.2499C18.4386 29.3661 21.8977 30.8009 24.5961 30.7983C23.6457 32.2251 22.9587 32.3014 22.0241 34.0679C17.4224 42.7395 27.9895 51.0689 35.1526 46.1013C37.1218 44.735 38.0932 42.0788 38.0932 41.0152C38.0932 39.0434 37.0033 37.8087 36.6427 36.2661C36.4268 36.5425 36.2109 36.8189 35.9924 37.0927C35.9477 37.1559 35.8924 37.2506 35.8503 37.3165C35.6265 37.6666 35.3975 38.1036 35.1684 38.4537C32.6622 42.2657 28.9688 39.7095 28.9688 37.7298C28.9688 33.6598 34.8051 31.4353 38.446 34.8208C39.0462 35.3789 39.9834 36.9874 40.2756 37.7298C43.1214 44.964 36.1267 48.5364 34.8078 50.5003C35.8845 52.6511 37.7141 55.0599 39.1094 57.1422C40.4256 59.1087 41.7419 61.0753 43.0608 63.0418C43.3767 63.4498 43.3399 63.3972 43.4399 63.4972C43.4399 60.7936 44.0138 58.1979 42.5396 56.055C41.247 54.1806 40.4151 52.4642 39.5648 51.2269" fill="white"/>
</mask>
<g mask="url(#mask14_307_547)">
<path d="M46.0988 6.32593H2.33789V63.4971H46.0988V6.32593Z" fill="url(#paint14_linear_307_547)"/>
</g>
<mask id="mask15_307_547" style="mask-type:luminance" maskUnits="userSpaceOnUse" x="2" y="7" width="43" height="57">
<path d="M39.4987 51.2715C46.0327 42.0997 44.8823 35.126 41.0361 26.4623C45.4167 24.5511 43.5686 18.72 43.3896 8.43196C43.3527 6.36804 43.2053 6.90508 42.2128 7.83174C41.4494 8.54516 40.7992 9.4139 40.4464 10.6486C40.1516 11.6832 40.8755 14.6 41.3125 15.5162C38.5694 14.8791 34.8417 13.4812 34.0098 18.799C34.0098 19.5176 34.352 20.5996 34.6364 21.0998C36.2554 23.964 39.3908 22.5661 39.8514 22.4582C39.217 21.4894 37.7691 20.9971 38.7563 19.5387C39.833 17.946 43.7897 20.2074 40.1647 23.119C39.2407 23.8614 38.6457 24.3089 37.6664 24.9723C38.056 26.8124 39.4171 28.6552 39.8383 30.4559C39.0748 29.853 38.6721 29.1291 37.9534 28.363C36.7082 27.0309 28.2919 19.3044 18.1118 17.4748C9.40597 15.9163 2.63504 9.04008 2.28228 8.95057C2.27175 11.4225 3.78547 15.6952 4.94906 17.5906C5.61509 18.6752 6.28903 20.1679 6.9498 21.0603C8.90315 23.6876 13.0652 26.7598 16.1374 28.2919C18.3751 29.4081 21.8343 30.8429 24.5326 30.8403C23.5823 32.2671 22.8952 32.3434 21.9606 34.1099C17.3589 42.7815 27.926 51.1109 35.0892 46.1433C37.0583 44.777 38.0297 42.1207 38.0297 41.0572C38.0297 39.0854 36.9398 37.8507 36.5792 36.3081C36.3633 36.5845 36.1474 36.8609 35.9289 37.1347C35.8842 37.1979 35.8289 37.2926 35.7868 37.3585C35.563 37.7086 35.334 38.1456 35.105 38.4957C32.5988 42.3077 28.9053 39.7514 28.9053 37.7718C28.9053 33.7018 34.7417 31.4773 38.3825 34.8628C38.9827 35.4209 39.9199 37.0294 40.2121 37.7718C43.0579 45.006 36.0632 48.5784 34.7443 50.5423C35.821 52.6931 37.6506 55.1019 39.0459 57.1842C40.3622 59.1507 41.6784 61.1172 42.9973 63.0838C43.3133 63.4918 43.2764 63.4392 43.3764 63.5392C43.3764 60.8356 43.9503 58.2399 42.4761 56.097C41.1835 54.2226 40.3516 52.5062 39.5013 51.2689" fill="white"/>
</mask>
<g mask="url(#mask15_307_547)">
<path d="M46.0329 6.36792H2.27197V63.5391H46.0329V6.36792Z" fill="url(#paint15_linear_307_547)"/>
</g>
<mask id="mask16_307_547" style="mask-type:luminance" maskUnits="userSpaceOnUse" x="2" y="7" width="43" height="57">
<path d="M39.4333 51.3137C45.9673 42.1419 44.8168 35.1683 40.9707 26.5046C45.3512 24.5933 43.5032 18.7622 43.3242 8.47419C43.2873 6.41027 43.1399 6.94731 42.1474 7.87397C41.384 8.58739 40.7337 9.45614 40.381 10.6908C40.0861 11.7254 40.8101 14.6423 41.2471 15.5584C38.504 14.9213 34.7763 13.5234 33.9444 18.8412C33.9444 19.5599 34.2866 20.6419 34.5709 21.142C36.19 24.0063 39.3253 22.6084 39.786 22.5004C39.1516 21.5317 37.7037 21.0394 38.6909 19.5809C39.7676 17.9882 43.7243 20.2496 40.0993 23.1612C39.1753 23.9036 38.5803 24.3511 37.601 25.0145C37.9906 26.8547 39.3516 28.6975 39.7729 30.4981C39.0094 29.8953 38.6066 29.1713 37.8879 28.4053C36.6427 27.0732 28.2265 19.3466 18.0464 17.517C9.34317 15.9585 2.56961 9.08231 2.21685 8.99281C2.20632 11.4648 3.72004 15.7374 4.88363 17.6328C5.54966 18.7175 6.2236 20.2101 6.88437 21.1026C8.83772 23.7298 12.9998 26.7994 16.072 28.3342C18.3097 29.4504 21.7688 30.8851 24.4672 30.8825C23.5168 32.3093 22.8297 32.3857 21.8952 34.1521C17.2935 42.8237 27.8606 51.1531 35.0237 46.1855C36.9929 44.8192 37.9643 42.163 37.9643 41.0994C37.9643 39.1276 36.8744 37.893 36.5138 36.3503C36.2979 36.6267 36.082 36.9031 35.8635 37.1769C35.8188 37.2401 35.7635 37.3349 35.7214 37.4007C35.4976 37.7508 35.2686 38.1878 35.0395 38.538C32.5333 42.3499 28.8399 39.7937 28.8399 37.814C28.8399 33.7441 34.6762 31.5196 38.3171 34.905C38.9173 35.4631 39.8545 37.0716 40.1467 37.814C42.9925 45.0483 35.9978 48.6206 34.6789 50.5845C35.7556 52.7353 37.5852 55.1441 38.9805 57.2265C40.2967 59.193 41.613 61.1595 42.9319 63.126C43.2478 63.534 43.211 63.4814 43.311 63.5814C43.311 60.8778 43.8849 58.2821 42.4107 56.1392C41.1181 54.2648 40.2862 52.5484 39.4359 51.3111" fill="white"/>
</mask>
<g mask="url(#mask16_307_547)">
<path d="M45.9699 6.41016H2.20898V63.5813H45.9699V6.41016Z" fill="url(#paint16_linear_307_547)"/>
</g>
<mask id="mask17_307_547" style="mask-type:luminance" maskUnits="userSpaceOnUse" x="2" y="7" width="43" height="57">
<path d="M39.3698 51.356C45.9038 42.1842 44.7534 35.2105 40.9072 26.5468C45.2878 24.6356 43.4397 18.8044 43.2607 8.51643C43.2238 6.45251 43.0764 6.98955 42.0839 7.91621C41.3205 8.62963 40.6703 9.49837 40.3175 10.733C40.0227 11.7676 40.7466 14.6845 41.1836 15.6006C38.4405 14.9636 34.7128 13.5657 33.8809 18.8834C33.8809 19.6021 34.2231 20.6841 34.5075 21.1843C36.1265 24.0485 39.2618 22.6506 39.7225 22.5427C39.0881 21.5739 37.6402 21.0816 38.6274 19.6232C39.7041 18.0305 43.6608 20.2918 40.0358 23.2034C39.1118 23.9458 38.5168 24.3934 37.5375 25.0568C37.9271 26.8969 39.2882 28.7397 39.7094 30.5404C38.9459 29.9375 38.5432 29.2136 37.8245 28.4475C36.5793 27.1154 28.163 19.3889 17.9829 17.5593C9.27706 16.0008 2.50614 9.12455 2.15337 9.03504C2.14284 11.507 3.65656 15.7796 4.82015 17.6751C5.48619 18.7597 6.16012 20.2524 6.82089 21.1448C8.77425 23.7721 12.9363 26.8443 16.0085 28.3764C18.2462 29.4926 21.7053 30.9274 24.4037 30.9247C23.4534 32.3516 22.7663 32.4279 21.8317 34.1944C17.23 42.866 27.7971 51.1954 34.9603 46.2278C36.9294 44.8615 37.9008 42.2052 37.9008 41.1417C37.9008 39.1699 36.8109 37.9352 36.4503 36.3925C36.2344 36.669 36.0185 36.9454 35.8 37.2192C35.7553 37.2823 35.7 37.3771 35.6579 37.4429C35.4341 37.7931 35.2051 38.2301 34.976 38.5802C32.4699 42.3921 28.7764 39.8359 28.7764 37.8562C28.7764 33.7863 34.6128 31.5618 38.2536 34.9473C38.8538 35.5054 39.791 37.1139 40.0832 37.8562C42.929 45.0905 35.9343 48.6629 34.6154 50.6268C35.6921 52.7775 37.5217 55.1863 38.917 57.2687C40.2333 59.2352 41.5495 61.2017 42.8684 63.1682C43.1843 63.5763 43.1475 63.5236 43.2475 63.6237C43.2475 60.92 43.8214 58.3243 42.3472 56.1814C41.0546 54.3071 40.2227 52.5906 39.3724 51.3533" fill="white"/>
</mask>
<g mask="url(#mask17_307_547)">
<path d="M45.904 6.45239H2.14307V63.6236H45.904V6.45239Z" fill="url(#paint17_linear_307_547)"/>
</g>
<mask id="mask18_307_547" style="mask-type:luminance" maskUnits="userSpaceOnUse" x="2" y="7" width="42" height="57">
<path d="M39.3039 51.398C45.8379 42.2261 44.6874 35.2525 40.8413 26.5888C45.2218 24.6775 43.3738 18.8464 43.1948 8.55842C43.1579 6.4945 43.0105 7.03154 42.018 7.9582C41.2546 8.67162 40.6043 9.54037 40.2516 10.775C39.9567 11.8096 40.6807 14.7265 41.1177 15.6426C38.3746 15.0055 34.6469 13.6077 33.815 18.9254C33.815 19.6441 34.1572 20.7261 34.4415 21.2263C36.0606 24.0905 39.1959 22.6926 39.6566 22.5847C39.0222 21.6159 37.5743 21.1236 38.5615 19.6652C39.6382 18.0725 43.5949 20.3338 39.9699 23.2454C39.0459 23.9878 38.4509 24.4354 37.4716 25.0988C37.8612 26.9389 39.2223 28.7817 39.6435 30.5824C38.88 29.9795 38.4772 29.2556 37.7586 28.4895C36.5134 27.1574 28.0971 19.4309 17.917 17.6012C9.21378 16.0428 2.44022 9.16654 2.08746 9.07704C2.07693 11.549 3.59064 15.8216 4.75423 17.7171C5.42027 18.8017 6.0942 20.2943 6.75497 21.1868C8.70833 23.8141 12.8704 26.8863 15.9426 28.4184C18.1803 29.5346 21.6394 30.9693 24.3378 30.9667C23.3874 32.3936 22.7003 32.4699 21.7658 34.2363C17.1641 42.908 27.7312 51.2374 34.8943 46.2697C36.8635 44.9035 37.8349 42.2472 37.8349 41.1837C37.8349 39.2119 36.745 37.9772 36.3844 36.4345C36.1685 36.7109 35.9526 36.9874 35.7341 37.2612C35.6894 37.3243 35.6341 37.4191 35.592 37.4849C35.3682 37.835 35.1392 38.2721 34.9101 38.6222C32.4039 42.4341 28.7105 39.8779 28.7105 37.8982C28.7105 33.8283 34.5468 31.6038 38.1877 34.9893C38.7879 35.5474 39.7251 37.1559 40.0173 37.8982C42.8631 45.1325 35.8684 48.7049 34.5495 50.6687C35.6262 52.8195 37.4558 55.2283 38.8511 57.3107C40.1673 59.2772 41.4836 61.2437 42.8025 63.2102C43.1184 63.6183 43.0816 63.5656 43.1816 63.6657C43.1816 60.962 43.7555 58.3663 42.2813 56.2234C40.9887 54.3491 40.1568 52.6326 39.3065 51.3953" fill="white"/>
</mask>
<g mask="url(#mask18_307_547)">
<path d="M45.8405 6.49438H2.07959V63.6655H45.8405V6.49438Z" fill="url(#paint18_linear_307_547)"/>
</g>
<mask id="mask19_307_547" style="mask-type:luminance" maskUnits="userSpaceOnUse" x="2" y="7" width="42" height="57">
<path d="M39.2409 51.4402C45.7749 42.2684 44.6244 35.2948 40.7783 26.631C45.1589 24.7198 43.3108 18.8887 43.1318 8.60066C43.0949 6.53674 42.9475 7.07378 41.955 8.00044C41.1916 8.71386 40.5414 9.5826 40.1886 10.8173C39.8937 11.8519 40.6177 14.7687 41.0547 15.6849C38.3116 15.0478 34.5839 13.6499 33.752 18.9677C33.752 19.6863 34.0942 20.7683 34.3785 21.2685C35.9976 24.1327 39.1329 22.7348 39.5936 22.6269C38.9592 21.6581 37.5113 21.1658 38.4985 19.7074C39.5752 18.1147 43.5319 20.3761 39.9069 23.2877C38.9829 24.0301 38.3879 24.4776 37.4086 25.141C37.7982 26.9811 39.1593 28.8239 39.5805 30.6246C38.817 30.0217 38.4143 29.2978 37.6956 28.5317C36.4504 27.1996 28.0341 19.4731 17.854 17.6435C9.14816 16.0824 2.37723 9.20615 2.02447 9.11927C2.01394 11.5912 3.52766 15.8639 4.69125 17.7593C5.35728 18.8439 6.03121 20.3366 6.69199 21.229C8.64534 23.8563 12.8074 26.9285 15.8796 28.4606C18.1173 29.5768 21.5764 31.0116 24.2748 31.009C23.3245 32.4358 22.6374 32.5121 21.7028 34.2786C17.1011 42.9502 27.6682 51.2796 34.8313 46.312C36.8005 44.9457 37.7719 42.2894 37.7719 41.2259C37.7719 39.2541 36.682 38.0194 36.3214 36.4768C36.1055 36.7532 35.8896 37.0296 35.6711 37.3034C35.6264 37.3666 35.5711 37.4613 35.529 37.5272C35.3052 37.8773 35.0762 38.3143 34.8471 38.6644C32.341 42.4764 28.6475 39.9201 28.6475 37.9405C28.6475 33.8705 34.4839 31.646 38.1247 35.0315C38.7249 35.5896 39.6621 37.1981 39.9543 37.9405C42.8001 45.1747 35.8054 48.7471 34.4865 50.711C35.5632 52.8618 37.3928 55.2706 38.7881 57.3529C40.1044 59.3194 41.4206 61.2859 42.7395 63.2525C43.0554 63.6605 43.0186 63.6079 43.1186 63.7079C43.1186 61.0043 43.6925 58.4086 42.2183 56.2657C40.9257 54.3913 40.0938 52.6749 39.2435 51.4376" fill="white"/>
</mask>
<g mask="url(#mask19_307_547)">
<path d="M45.7751 6.53662H2.01416V63.7078H45.7751V6.53662Z" fill="url(#paint19_linear_307_547)"/>
</g>
<mask id="mask20_307_547" style="mask-type:luminance" maskUnits="userSpaceOnUse" x="1" y="7" width="43" height="57">
<path d="M39.175 51.4822C45.709 42.3104 44.5585 35.3367 40.7124 26.673C45.0929 24.7618 43.2449 18.9307 43.0659 8.64265C43.029 6.57873 42.8816 7.11577 41.8891 8.04243C41.1257 8.75585 40.4754 9.62459 40.1227 10.8593C39.8278 11.8939 40.5518 14.8107 40.9888 15.7269C38.2457 15.0898 34.518 13.6919 33.6861 19.0096C33.6861 19.7283 34.0283 20.8103 34.3126 21.3105C35.9317 24.1747 39.067 22.7768 39.5277 22.6689C38.8933 21.7001 37.4454 21.2078 38.4326 19.7494C39.5093 18.1567 43.466 20.4181 39.841 23.3297C38.917 24.072 38.322 24.5196 37.3427 25.183C37.7323 27.0231 39.0933 28.8659 39.5146 30.6666C38.7511 30.0637 38.3483 29.3398 37.6297 28.5737C36.3845 27.2416 27.9682 19.5151 17.7881 17.6855C9.08224 16.1244 2.31131 9.24814 1.95855 9.15863C1.94802 11.6306 3.46174 15.9032 4.62533 17.7987C5.29136 18.8833 5.9653 20.3759 6.62607 21.2684C8.57942 23.8957 12.7415 26.9679 15.8137 28.5C18.0513 29.6162 21.5105 31.0509 24.2089 31.0483C23.2585 32.4752 22.5714 32.5515 21.6369 34.3179C17.0352 42.9896 27.6023 51.319 34.7654 46.3513C36.7346 44.9851 37.706 42.3288 37.706 41.2653C37.706 39.2935 36.6161 38.0588 36.2555 36.5161C36.0396 36.7925 35.8237 37.069 35.6052 37.3427C35.5605 37.4059 35.5052 37.5007 35.4631 37.5665C35.2393 37.9166 35.0103 38.3536 34.7812 38.7038C32.275 42.5157 28.5816 39.9595 28.5816 37.9798C28.5816 33.9099 34.4179 31.6854 38.0588 35.0709C38.659 35.629 39.5962 37.2374 39.8884 37.9798C42.7342 45.2141 35.7395 48.7865 34.4206 50.7503C35.4973 52.9011 37.3269 55.3099 38.7222 57.3923C40.0384 59.3588 41.3547 61.3253 42.6736 63.2918C42.9895 63.6999 42.9527 63.6472 43.0527 63.7473C43.0527 61.0436 43.6266 58.4479 42.1524 56.305C40.8598 54.4307 40.0279 52.7142 39.1776 51.4769" fill="white"/>
</mask>
<g mask="url(#mask20_307_547)">
<path d="M45.7092 6.57617H1.94824V63.7473H45.7092V6.57617Z" fill="url(#paint20_linear_307_547)"/>
</g>
<mask id="mask21_307_547" style="mask-type:luminance" maskUnits="userSpaceOnUse" x="1" y="7" width="43" height="57">
<path d="M39.112 51.5217C45.646 42.3499 44.4955 35.3763 40.6494 26.7126C45.0299 24.8013 43.1819 18.9702 43.0029 8.6822C42.966 6.61828 42.8186 7.15532 41.8261 8.08198C41.0627 8.7954 40.4124 9.66415 40.0597 10.8988C39.7648 11.9334 40.4888 14.8503 40.9258 15.7664C38.1827 15.1293 34.455 13.7314 33.6231 19.0492C33.6231 19.7679 33.9653 20.8499 34.2496 21.35C35.8687 24.2143 39.004 22.8164 39.4647 22.7084C38.8303 21.7397 37.3824 21.2474 38.3696 19.7889C39.4463 18.1962 43.403 20.4576 39.778 23.3692C38.854 24.1116 38.259 24.5591 37.2797 25.2225C37.6693 27.0627 39.0304 28.9055 39.4516 30.7061C38.6881 30.1033 38.2853 29.3793 37.5667 28.6133C36.3215 27.2812 27.9052 19.5546 17.7251 17.725C9.01925 16.1666 2.24832 9.29032 1.89556 9.20082C1.88503 11.6728 3.39875 15.9454 4.56234 17.8409C5.22837 18.9255 5.90231 20.4181 6.56308 21.3106C8.51643 23.9378 12.6785 27.0074 15.7507 28.5422C17.9884 29.6584 21.4475 31.0931 24.1459 31.0905C23.1956 32.5173 22.5085 32.5937 21.5739 34.3601C16.9722 43.0318 27.5393 51.3612 34.7024 46.3935C36.6716 45.0272 37.643 42.371 37.643 41.3074C37.643 39.3357 36.5531 38.101 36.1925 36.5583C35.9766 36.8347 35.7607 37.1111 35.5422 37.3849C35.4975 37.4481 35.4422 37.5429 35.4001 37.6087C35.1763 37.9588 34.9473 38.3958 34.7182 38.746C32.212 42.5579 28.5186 40.0017 28.5186 38.022C28.5186 33.9521 34.3549 31.7276 37.9958 35.113C38.596 35.6711 39.5332 37.2796 39.8254 38.022C42.6712 45.2563 35.6765 48.8286 34.3576 50.7925C35.4343 52.9433 37.2639 55.3521 38.6592 57.4345C39.9754 59.401 41.2917 61.3675 42.6106 63.334C42.9265 63.7421 42.8897 63.6894 42.9897 63.7894C42.9897 61.0858 43.5636 58.4901 42.0894 56.3472C40.7968 54.4728 39.9649 52.7564 39.1146 51.5191" fill="white"/>
</mask>
<g mask="url(#mask21_307_547)">
<path d="M45.6462 6.61816H1.88525V63.7893H45.6462V6.61816Z" fill="url(#paint21_linear_307_547)"/>
</g>
<mask id="mask22_307_547" style="mask-type:luminance" maskUnits="userSpaceOnUse" x="1" y="7" width="43" height="57">
<path d="M39.0461 51.5637C45.58 42.3919 44.4296 35.4183 40.5835 26.7546C44.964 24.8433 43.116 19.0122 42.937 8.72419C42.9001 6.66027 42.7527 7.19731 41.7602 8.12397C40.9968 8.83739 40.3465 9.70614 39.9938 10.9408C39.6989 11.9754 40.4229 14.8923 40.8599 15.8084C38.1168 15.1713 34.3891 13.7734 33.5572 19.0912C33.5572 19.8099 33.8994 20.8919 34.1837 21.392C35.8027 24.2563 38.9381 22.8584 39.3988 22.7504C38.7644 21.7817 37.3165 21.2894 38.3037 19.8309C39.3804 18.2382 43.3371 20.4996 39.7121 23.4112C38.7881 24.1536 38.1931 24.6011 37.2138 25.2645C37.6034 27.1047 38.9644 28.9475 39.3856 30.7481C38.6222 30.1453 38.2194 29.4213 37.5007 28.6553C36.2555 27.3232 27.8393 19.5966 17.6592 17.767C8.95333 16.2085 2.18241 9.33231 1.82964 9.24281C1.81911 11.7148 3.33283 15.9874 4.49642 17.8828C5.16246 18.9675 5.83639 20.4601 6.49716 21.3526C8.45052 23.9798 12.6126 27.052 15.6848 28.5842C17.9224 29.7004 21.3816 31.1351 24.08 31.1325C23.1296 32.5593 22.4425 32.6357 21.508 34.4021C16.9063 43.0737 27.4733 51.4031 34.6365 46.4355C36.6057 45.0692 37.5771 42.413 37.5771 41.3494C37.5771 39.3776 36.4872 38.143 36.1265 36.6003C35.9107 36.8767 35.6948 37.1531 35.4763 37.4269C35.4316 37.4901 35.3763 37.5849 35.3342 37.6507C35.1104 38.0008 34.8814 38.4378 34.6523 38.788C32.1461 42.5999 28.4527 40.0437 28.4527 38.064C28.4527 33.9941 34.289 31.7696 37.9298 35.155C38.5301 35.7131 39.4673 37.3216 39.7595 38.064C42.6053 45.2983 35.6106 48.8706 34.2917 50.8345C35.3684 52.9853 37.198 55.3941 38.5933 57.4765C39.9095 59.443 41.2258 61.4095 42.5447 63.376C42.8606 63.784 42.8238 63.7314 42.9238 63.8314C42.9238 61.1278 43.4977 58.5321 42.0235 56.3892C40.7309 54.5148 39.899 52.7984 39.0487 51.5611" fill="white"/>
</mask>
<g mask="url(#mask22_307_547)">
<path d="M45.5803 6.66016H1.81934V63.8313H45.5803V6.66016Z" fill="url(#paint22_linear_307_547)"/>
</g>
<mask id="mask23_307_547" style="mask-type:luminance" maskUnits="userSpaceOnUse" x="1" y="7" width="43" height="57">
<path d="M38.9831 51.606C45.5171 42.4342 44.3666 35.4605 40.5205 26.7968C44.901 24.8856 43.053 19.0544 42.874 8.76643C42.8371 6.70251 42.6897 7.23955 41.6972 8.16621C40.9338 8.87963 40.2835 9.74837 39.9308 10.983C39.6359 12.0176 40.3599 14.9345 40.7969 15.8506C38.0538 15.2136 34.3261 13.8157 33.4942 19.1334C33.4942 19.8521 33.8364 20.9341 34.1207 21.4343C35.7398 24.2985 38.8751 22.9006 39.3358 22.7927C38.7014 21.8239 37.2535 21.3316 38.2407 19.8732C39.3174 18.2805 43.2741 20.5418 39.6491 23.4534C38.7251 24.1958 38.1301 24.6434 37.1508 25.3068C37.5404 27.1469 38.9015 28.9897 39.3227 30.7904C38.5592 30.1875 38.1564 29.4636 37.4378 28.6975C36.1926 27.3654 27.7763 19.6389 17.5962 17.8093C8.89034 16.2508 2.11942 9.37455 1.76666 9.28504C1.75613 11.757 3.26984 16.0296 4.43343 17.9251C5.09947 19.0097 5.7734 20.5024 6.43417 21.3948C8.38753 24.0221 12.5496 27.0916 15.6218 28.6264C17.8595 29.7426 21.3186 31.1774 24.017 31.1747C23.0666 32.6016 22.3795 32.6779 21.445 34.4444C16.8433 43.116 27.4104 51.4454 34.5735 46.4778C36.5427 45.1115 37.5141 42.4552 37.5141 41.3917C37.5141 39.4199 36.4242 38.1852 36.0636 36.6425C35.8477 36.919 35.6318 37.1954 35.4133 37.4692C35.3686 37.5323 35.3133 37.6271 35.2712 37.6929C35.0474 38.0431 34.8184 38.4801 34.5893 38.8302C32.0831 42.6421 28.3897 40.0859 28.3897 38.1062C28.3897 34.0363 34.226 31.8118 37.8669 35.1973C38.4671 35.7554 39.4043 37.3639 39.6965 38.1062C42.5423 45.3405 35.5476 48.9129 34.2287 50.8768C35.3054 53.0275 37.135 55.4363 38.5303 57.5187C39.8465 59.4852 41.1628 61.4517 42.4817 63.4182C42.7976 63.8263 42.7608 63.7736 42.8608 63.8737C42.8608 61.17 43.4347 58.5743 41.9605 56.4314C40.6679 54.5571 39.836 52.8406 38.9857 51.6033" fill="white"/>
</mask>
<g mask="url(#mask23_307_547)">
<path d="M45.5173 6.70239H1.75635V63.8736H45.5173V6.70239Z" fill="url(#paint23_linear_307_547)"/>
</g>
<mask id="mask24_307_547" style="mask-type:luminance" maskUnits="userSpaceOnUse" x="1" y="7" width="43" height="57">
<path d="M38.9171 51.648C45.4511 42.4761 44.3007 35.5025 40.4546 26.8388C44.8351 24.9275 42.9871 19.0964 42.8081 8.80842C42.7712 6.7445 42.6238 7.28154 41.6313 8.2082C40.8679 8.92162 40.2176 9.79037 39.8649 11.025C39.57 12.0596 40.294 14.9765 40.731 15.8926C37.9879 15.2555 34.2602 13.8577 33.4283 19.1754C33.4283 19.8941 33.7705 20.9761 34.0548 21.4763C35.6738 24.3405 38.8092 22.9426 39.2699 22.8347C38.6355 21.8659 37.1876 21.3736 38.1748 19.9152C39.2515 18.3225 43.2082 20.5838 39.5832 23.4954C38.6592 24.2378 38.0642 24.6854 37.0849 25.3488C37.4745 27.1889 38.8355 29.0317 39.2567 30.8324C38.4933 30.2295 38.0905 29.5056 37.3718 28.7395C36.1266 27.4074 27.7104 19.6809 17.5303 17.8512C8.82443 16.2928 2.0535 9.41654 1.70074 9.32704C1.69021 11.799 3.20393 16.0716 4.36751 17.9671C5.03355 19.0517 5.70748 20.5443 6.36826 21.4368C8.32161 24.0641 12.4837 27.1363 15.5559 28.6684C17.7935 29.7846 21.2527 31.2193 23.9511 31.2167C23.0007 32.6436 22.3136 32.7199 21.3791 34.4863C16.7774 43.158 27.3444 51.4874 34.5076 46.5197C36.4768 45.1535 37.4482 42.4972 37.4482 41.4337C37.4482 39.4619 36.3583 38.2272 35.9976 36.6845C35.7818 36.9609 35.5659 37.2374 35.3474 37.5112C35.3027 37.5743 35.2474 37.6691 35.2052 37.7349C34.9815 38.085 34.7524 38.5221 34.5234 38.8722C32.0172 42.6841 28.3237 40.1279 28.3237 38.1482C28.3237 34.0783 34.1601 31.8538 37.8009 35.2393C38.4012 35.7974 39.3384 37.4058 39.6306 38.1482C42.4764 45.3825 35.4817 48.9549 34.1628 50.9187C35.2395 53.0695 37.0691 55.4783 38.4643 57.5607C39.7806 59.5272 41.0969 61.4937 42.4158 63.4602C42.7317 63.8683 42.6949 63.8156 42.7949 63.9157C42.7949 61.212 43.3688 58.6163 41.8946 56.4734C40.602 54.5991 39.7701 52.8826 38.9198 51.6453" fill="white"/>
</mask>
<g mask="url(#mask24_307_547)">
<path d="M45.4514 6.74438H1.69043V63.9155H45.4514V6.74438Z" fill="url(#paint24_linear_307_547)"/>
</g>
<mask id="mask25_307_547" style="mask-type:luminance" maskUnits="userSpaceOnUse" x="1" y="7" width="43" height="57">
<path d="M38.8512 51.6902C45.3852 42.5184 44.2348 35.5448 40.3886 26.881C44.7692 24.9698 42.9212 19.1387 42.7421 8.85066C42.7053 6.78674 42.5579 7.32378 41.5654 8.25044C40.8019 8.96386 40.1517 9.8326 39.7989 11.0673C39.5041 12.1019 40.2281 15.0187 40.6651 15.9349C37.9219 15.2978 34.1942 13.8999 33.3624 19.2177C33.3624 19.9363 33.7046 21.0183 33.9889 21.5185C35.6079 24.3827 38.7433 22.9848 39.204 22.8769C38.5695 21.9081 37.1216 21.4158 38.1088 19.9574C39.1856 18.3647 43.1423 20.6261 39.5173 23.5377C38.5932 24.2801 37.9983 24.7276 37.019 25.391C37.4086 27.2311 38.7696 29.0739 39.1908 30.8746C38.4274 30.2717 38.0246 29.5478 37.3059 28.7817C36.0607 27.4496 27.6444 19.7231 17.4644 17.8935C8.76114 16.335 1.99021 9.45878 1.63482 9.36927C1.62429 11.8412 3.13801 16.1139 4.3016 18.0093C4.96763 19.0939 5.64157 20.5866 6.30234 21.479C8.25569 24.1063 12.4178 27.1759 15.4899 28.7106C17.7276 29.8268 21.1868 31.2616 23.8852 31.259C22.9348 32.6858 22.2477 32.7621 21.3132 34.5286C16.7115 43.2002 27.2785 51.5296 34.4417 46.562C36.4109 45.1957 37.3823 42.5394 37.3823 41.4759C37.3823 39.5041 36.2924 38.2694 35.9317 36.7268C35.7159 37.0032 35.5 37.2796 35.2815 37.5534C35.2367 37.6166 35.1814 37.7113 35.1393 37.7772C34.9156 38.1273 34.6865 38.5643 34.4575 38.9144C31.9513 42.7264 28.2578 40.1701 28.2578 38.1905C28.2578 34.1205 34.0942 31.896 37.735 35.2815C38.3352 35.8396 39.2724 37.4481 39.5646 38.1905C42.4104 45.4247 35.4157 48.9971 34.0968 50.961C35.1735 53.1118 37.0032 55.5206 38.3984 57.6029C39.7147 59.5694 41.031 61.5359 42.3499 63.5025C42.6658 63.9105 42.6289 63.8579 42.729 63.9579C42.729 61.2543 43.3029 58.6586 41.8286 56.5157C40.5361 54.6413 39.7042 52.9249 38.8539 51.6876" fill="white"/>
</mask>
<g mask="url(#mask25_307_547)">
<path d="M45.3879 6.78662H1.62695V63.9578H45.3879V6.78662Z" fill="url(#paint25_linear_307_547)"/>
</g>
<mask id="mask26_307_547" style="mask-type:luminance" maskUnits="userSpaceOnUse" x="1" y="7" width="43" height="57">
<path d="M38.7882 51.7322C45.3222 42.5604 44.1718 35.5867 40.3256 26.923C44.7062 25.0118 42.8582 19.1807 42.6791 8.89265C42.6423 6.82873 42.4949 7.36577 41.5024 8.29243C40.739 9.00585 40.0887 9.87459 39.736 11.1093C39.4411 12.1439 40.1651 15.0607 40.6021 15.9769C37.8589 15.3398 34.1312 13.9419 33.2994 19.2596C33.2994 19.9783 33.6416 21.0603 33.9259 21.5605C35.5449 24.4247 38.6803 23.0268 39.141 22.9189C38.5066 21.9501 37.0587 21.4578 38.0459 19.9994C39.1226 18.4067 43.0793 20.6681 39.4543 23.5797C38.5302 24.322 37.9353 24.7696 36.956 25.433C37.3456 27.2731 38.7066 29.1159 39.1278 30.9166C38.3644 30.3137 37.9616 29.5898 37.2429 28.8237C35.9977 27.4916 27.5815 19.7651 17.4014 17.9355C8.69552 16.377 1.92459 9.49814 1.57183 9.41126C1.5613 11.8832 3.07502 16.1559 4.23861 18.0513C4.90464 19.1359 5.57858 20.6286 6.23935 21.521C8.1927 24.1483 12.3548 27.2205 15.427 28.7526C17.6646 29.8688 21.1238 31.3036 23.8222 31.3009C22.8718 32.7278 22.1847 32.8041 21.2502 34.5706C16.6485 43.2422 27.2155 51.5716 34.3787 46.604C36.3479 45.2377 37.3193 42.5814 37.3193 41.5179C37.3193 39.5461 36.2294 38.3114 35.8687 36.7688L35.2185 37.5954C35.1737 37.6586 35.1185 37.7533 35.0763 37.8191C34.8526 38.1693 34.6235 38.6063 34.3945 38.9564C31.8883 42.7683 28.1948 40.2121 28.1948 38.2325C28.1948 34.1625 34.0312 31.938 37.672 35.3235C38.2723 35.8816 39.2094 37.4901 39.5017 38.2325C42.3475 45.4667 35.3528 49.0391 34.0338 51.003C35.1106 53.1538 36.9402 55.5626 38.3354 57.6449L42.2869 63.5445C42.6028 63.9525 42.566 63.8999 42.666 63.9999C42.666 61.2963 43.2399 58.7006 41.7657 56.5577C40.4731 54.6833 39.6412 52.9669 38.7909 51.7296" fill="white"/>
</mask>
<g mask="url(#mask26_307_547)">
<path d="M45.3225 6.82861H1.56152V63.9998H45.3225V6.82861Z" fill="url(#paint26_linear_307_547)"/>
</g>
<mask id="mask27_307_547" style="mask-type:luminance" maskUnits="userSpaceOnUse" x="0" y="0" width="45" height="62">
<path d="M39.8225 48.0441C46.8145 38.2299 45.5825 30.7693 41.4678 21.4974C46.1564 19.4519 44.1767 13.2128 43.9845 2.20608C43.9451 -0.00263262 43.7871 0.571264 42.7236 1.56374C41.9075 2.32718 41.2125 3.25647 40.8334 4.57801C40.5175 5.68368 41.2914 8.80589 41.76 9.78783C38.8247 9.106 34.8364 7.61071 33.9466 13.2997C33.9466 14.0684 34.3125 15.2267 34.6179 15.7637C36.3501 18.828 39.7066 17.3327 40.1963 17.2195C39.5171 16.1823 37.9692 15.6584 39.0248 14.0973C40.1752 12.3941 44.411 14.8107 40.5306 17.9277C39.5408 18.7227 38.9063 19.2018 37.8586 19.91C38.2745 21.8791 39.733 23.8509 40.1805 25.7753C39.3644 25.1304 38.9327 24.3564 38.164 23.5377C36.8319 22.1134 27.8286 13.8472 16.9351 11.8886C7.62636 10.2169 0.381571 2.85895 0.00248346 2.76418C-0.00014909 3.49866 0.120948 4.38057 0.326287 5.31512C0.860696 7.75024 1.95584 10.5434 2.85354 12.0097C3.56433 13.1707 4.28565 14.7686 4.99644 15.7216C7.08405 18.5305 11.541 21.8186 14.8264 23.4587C17.2194 24.6539 20.9207 26.1886 23.8087 26.1834C22.7925 27.7103 22.058 27.7919 21.055 29.682C16.1295 38.9618 27.4389 47.873 35.1023 42.5579C37.2084 41.0968 38.2482 38.2563 38.2482 37.1164C38.2482 35.0077 37.082 33.6861 36.6976 32.0355L36.0026 32.9201C35.9553 32.9885 35.8973 33.0886 35.8526 33.1596C35.613 33.5335 35.3682 34.0021 35.1234 34.3759C32.4434 38.4537 28.4893 35.7185 28.4893 33.6019C28.4893 29.245 34.7338 26.8678 38.6299 30.4876C39.2723 31.0852 40.2753 32.8069 40.5886 33.5993C43.6344 41.3416 36.1501 45.1614 34.7364 47.2649C35.8894 49.5657 37.8454 52.143 39.3381 54.3701L43.566 60.683C43.9029 61.12 43.8634 61.0621 43.9714 61.17C43.9714 58.2768 44.5874 55.4995 43.0079 53.2092C41.6258 51.2032 40.736 49.3683 39.8251 48.0441" fill="white"/>
</mask>
<g mask="url(#mask27_307_547)">
<path d="M46.8147 0H0V61.1726H46.8147V0Z" fill="url(#paint27_linear_307_547)"/>
</g>
</g>
<defs>
<linearGradient id="paint0_linear_307_547" x1="73.5533" y1="34.7076" x2="80.6454" y2="59.5036" gradientUnits="userSpaceOnUse">
<stop stop-color="#533D8D"/>
<stop offset="1" stop-color="#DC258E"/>
</linearGradient>
<linearGradient id="paint1_linear_307_547" x1="7.25312" y1="16.3297" x2="42.2634" y2="51.8034" gradientUnits="userSpaceOnUse">
<stop stop-color="#68499C"/>
<stop offset="0.56" stop-color="#684A9D"/>
<stop offset="1" stop-color="#624A9D"/>
</linearGradient>
<linearGradient id="paint2_linear_307_547" x1="7.18701" y1="16.3717" x2="42.2" y2="51.8453" gradientUnits="userSpaceOnUse">
<stop stop-color="#6E499C"/>
<stop offset="0.56" stop-color="#6E499C"/>
<stop offset="1" stop-color="#624B9E"/>
</linearGradient>
<linearGradient id="paint3_linear_307_547" x1="7.12372" y1="16.4139" x2="42.1341" y2="51.885" gradientUnits="userSpaceOnUse">
<stop stop-color="#73489B"/>
<stop offset="0.56" stop-color="#74489C"/>
<stop offset="1" stop-color="#614B9E"/>
</linearGradient>
<linearGradient id="paint4_linear_307_547" x1="7.0581" y1="16.4533" x2="42.0711" y2="51.9269" gradientUnits="userSpaceOnUse">
<stop stop-color="#79479B"/>
<stop offset="0.56" stop-color="#79489B"/>
<stop offset="1" stop-color="#614B9E"/>
</linearGradient>
<linearGradient id="paint5_linear_307_547" x1="6.99482" y1="16.4957" x2="42.0051" y2="51.9694" gradientUnits="userSpaceOnUse">
<stop stop-color="#7D469A"/>
<stop offset="0.56" stop-color="#7E479B"/>
<stop offset="1" stop-color="#614C9E"/>
</linearGradient>
<linearGradient id="paint6_linear_307_547" x1="6.92871" y1="16.5375" x2="41.9417" y2="52.0111" gradientUnits="userSpaceOnUse">
<stop stop-color="#81459A"/>
<stop offset="0.56" stop-color="#82469A"/>
<stop offset="1" stop-color="#614C9E"/>
</linearGradient>
<linearGradient id="paint7_linear_307_547" x1="6.86328" y1="16.5797" x2="41.8762" y2="52.0534" gradientUnits="userSpaceOnUse">
<stop stop-color="#864399"/>
<stop offset="0.56" stop-color="#88469A"/>
<stop offset="1" stop-color="#614C9E"/>
</linearGradient>
<linearGradient id="paint8_linear_307_547" x1="6.7998" y1="16.6219" x2="41.8128" y2="52.0956" gradientUnits="userSpaceOnUse">
<stop stop-color="#8B4298"/>
<stop offset="0.56" stop-color="#8D4499"/>
<stop offset="1" stop-color="#604C9E"/>
</linearGradient>
<linearGradient id="paint9_linear_307_547" x1="6.73437" y1="16.6639" x2="41.7473" y2="52.1376" gradientUnits="userSpaceOnUse">
<stop stop-color="#904198"/>
<stop offset="0.56" stop-color="#924499"/>
<stop offset="1" stop-color="#604C9E"/>
</linearGradient>
<linearGradient id="paint10_linear_307_547" x1="6.6709" y1="16.7062" x2="41.6812" y2="52.1798" gradientUnits="userSpaceOnUse">
<stop stop-color="#953F97"/>
<stop offset="0.56" stop-color="#974398"/>
<stop offset="1" stop-color="#604C9E"/>
</linearGradient>
<linearGradient id="paint11_linear_307_547" x1="6.60547" y1="16.7482" x2="41.6184" y2="52.2192" gradientUnits="userSpaceOnUse">
<stop stop-color="#9A3F96"/>
<stop offset="0.56" stop-color="#9D4298"/>
<stop offset="1" stop-color="#604C9E"/>
</linearGradient>
<linearGradient id="paint12_linear_307_547" x1="6.54199" y1="16.7878" x2="41.5523" y2="52.2614" gradientUnits="userSpaceOnUse">
<stop stop-color="#9F3D95"/>
<stop offset="0.56" stop-color="#A14197"/>
<stop offset="1" stop-color="#604D9F"/>
</linearGradient>
<linearGradient id="paint13_linear_307_547" x1="6.47607" y1="16.8299" x2="41.489" y2="52.3036" gradientUnits="userSpaceOnUse">
<stop stop-color="#A33B94"/>
<stop offset="0.56" stop-color="#A63F96"/>
<stop offset="1" stop-color="#5F4D9F"/>
</linearGradient>
<linearGradient id="paint14_linear_307_547" x1="6.41308" y1="16.8719" x2="41.4234" y2="52.3456" gradientUnits="userSpaceOnUse">
<stop stop-color="#A83993"/>
<stop offset="0.56" stop-color="#AB3E96"/>
<stop offset="1" stop-color="#5F4D9F"/>
</linearGradient>
<linearGradient id="paint15_linear_307_547" x1="6.34716" y1="16.9139" x2="41.3601" y2="52.3876" gradientUnits="userSpaceOnUse">
<stop stop-color="#AD3792"/>
<stop offset="0.56" stop-color="#B03D95"/>
<stop offset="1" stop-color="#5F4D9F"/>
</linearGradient>
<linearGradient id="paint16_linear_307_547" x1="6.28418" y1="16.9562" x2="41.2945" y2="52.4298" gradientUnits="userSpaceOnUse">
<stop stop-color="#B23592"/>
<stop offset="0.56" stop-color="#B63C95"/>
<stop offset="1" stop-color="#5F4D9F"/>
</linearGradient>
<linearGradient id="paint17_linear_307_547" x1="6.21826" y1="16.9984" x2="41.2312" y2="52.4721" gradientUnits="userSpaceOnUse">
<stop stop-color="#B73291"/>
<stop offset="0.56" stop-color="#BB3A94"/>
<stop offset="1" stop-color="#5F4D9F"/>
</linearGradient>
<linearGradient id="paint18_linear_307_547" x1="6.15478" y1="17.0404" x2="41.1651" y2="52.5114" gradientUnits="userSpaceOnUse">
<stop stop-color="#BC3090"/>
<stop offset="0.56" stop-color="#C03994"/>
<stop offset="1" stop-color="#5F4E9F"/>
</linearGradient>
<linearGradient id="paint19_linear_307_547" x1="6.08935" y1="17.08" x2="41.1023" y2="52.5537" gradientUnits="userSpaceOnUse">
<stop stop-color="#C12D8F"/>
<stop offset="0.56" stop-color="#C53693"/>
<stop offset="1" stop-color="#5E4E9F"/>
</linearGradient>
<linearGradient id="paint20_linear_307_547" x1="6.02607" y1="17.1222" x2="41.0364" y2="52.5958" gradientUnits="userSpaceOnUse">
<stop stop-color="#C6298E"/>
<stop offset="0.56" stop-color="#CB3492"/>
<stop offset="1" stop-color="#5E4E9F"/>
</linearGradient>
<linearGradient id="paint21_linear_307_547" x1="5.96045" y1="17.1642" x2="40.9734" y2="52.6378" gradientUnits="userSpaceOnUse">
<stop stop-color="#CB268E"/>
<stop offset="0.56" stop-color="#D03292"/>
<stop offset="1" stop-color="#5E4E9F"/>
</linearGradient>
<linearGradient id="paint22_linear_307_547" x1="5.89716" y1="17.2062" x2="40.9075" y2="52.6798" gradientUnits="userSpaceOnUse">
<stop stop-color="#CF228D"/>
<stop offset="0.56" stop-color="#D53091"/>
<stop offset="1" stop-color="#5E4FA0"/>
</linearGradient>
<linearGradient id="paint23_linear_307_547" x1="5.83154" y1="17.2484" x2="40.8445" y2="52.7221" gradientUnits="userSpaceOnUse">
<stop stop-color="#D41E8C"/>
<stop offset="0.56" stop-color="#DA2E91"/>
<stop offset="1" stop-color="#5E4FA0"/>
</linearGradient>
<linearGradient id="paint24_linear_307_547" x1="5.76825" y1="17.2904" x2="40.7786" y2="52.764" gradientUnits="userSpaceOnUse">
<stop stop-color="#D9178C"/>
<stop offset="0.56" stop-color="#DF2A90"/>
<stop offset="1" stop-color="#5D4FA0"/>
</linearGradient>
<linearGradient id="paint25_linear_307_547" x1="5.70215" y1="17.3326" x2="40.7151" y2="52.8063" gradientUnits="userSpaceOnUse">
<stop stop-color="#DE138B"/>
<stop offset="0.56" stop-color="#E5278F"/>
<stop offset="1" stop-color="#5C4FA0"/>
</linearGradient>
<linearGradient id="paint26_linear_307_547" x1="5.63935" y1="17.372" x2="40.6497" y2="52.8456" gradientUnits="userSpaceOnUse">
<stop stop-color="#E3088A"/>
<stop offset="0.56" stop-color="#EC248F"/>
<stop offset="1" stop-color="#5C4FA0"/>
</linearGradient>
<linearGradient id="paint27_linear_307_547" x1="0" y1="30.585" x2="44.8113" y2="30.585" gradientUnits="userSpaceOnUse">
<stop stop-color="#E2038B"/>
<stop offset="1" stop-color="white"/>
</linearGradient>
<clipPath id="clip0_307_547">
<rect width="104.823" height="64" fill="white"/>
</clipPath>
</defs>
</svg>
